<svg id="drawing" xmlns="http://www.w3.org/2000/svg" viewBox="0 0 1008 672"><defs><style>.cls-1{fill:#a4bac1;}</style></defs><title>logo</title><path class="cls-1" d="M385.93,401.19c-24.95-66.1-26.61-186.74-.46-255.38,16,6.21,32.16,12.29,48.9,16.55a33.61,33.61,0,0,0,21.79-1.24c33-13,66-13.57,98.81.86,6.93,3.06,13.62,2.4,20.4.21,15.62-5,31.43-9.55,48.45-17.73,24.75,85.9,25.48,170.22.44,256.16-16.84-5-31.67-11.8-47.44-15.78-9.67-2.45-18.05-2.2-27.5,1.38-31.5,12-63.33,12.6-94.58-1.17-8.54-3.76-16.37-2.63-24.69-.27C415.23,389,401.09,395.1,385.93,401.19Zm18.39-127.44C400.61,326.8,452,374.07,500.56,374.09c57.19,0,104.41-42.75,104.55-97.39.15-61-44.56-103.78-100.76-104C444.42,172.44,402.1,222.86,404.32,273.75Z"/><path class="cls-1" d="M342.21,268.09H236.68c2.27-67.91,25.19-126,72.82-175.82,15.76,15.4,32.44,27.07,49.31,38.48,4.44,3,5.1,7.2,3.54,11.85-13.32,39.62-17.84,80.56-18.43,122.09C343.91,265.56,343.09,266.41,342.21,268.09Z"/><path class="cls-1" d="M771.32,268H666.4c-2.52-21.64-2.78-43-6.14-64a544.59,544.59,0,0,0-11.71-57c-2.35-8.67-1.8-14.65,7.52-19.55,16.33-8.58,29.65-21.6,44.72-34.87C746.09,142.77,770.11,200,771.32,268Z"/><path class="cls-1" d="M644.38,413.05c10.61-38,18.5-74.42,18.78-112.12,0-5.18.37-10.64,7.43-10.67,32.83-.12,65.66-.05,100.34-.05-5.28,64-27.82,118.14-71,165A672.58,672.58,0,0,0,644.38,413.05Z"/><path class="cls-1" d="M238.85,293h104.2c2.35,20,4.61,39.12,6.84,58.28,2.07,17.86,6.64,35.16,11.7,52.33,1.62,5.49,3.19,10.77-2.89,14.56a284,284,0,0,0-49.08,38.57C266.32,410,243.37,356.34,238.85,293Z"/><path class="cls-1" d="M394.05,123.93C405.12,80.4,450.3,19.17,493.23,20.84V148.77C457.35,148.41,425,139,394.05,123.93Z"/><path class="cls-1" d="M494,529.37c-18.65-.56-31.89-9.28-44.1-19.42-23.94-19.89-39.85-45.67-52.52-73.73-3.88-8.58-1.92-13.51,6.81-17.62,25.7-12.11,53.07-16.75,80.88-19.93,5.5-.63,8.89,1.37,8.9,7.15C494.05,446.64,494,487.46,494,529.37Z"/><path class="cls-1" d="M516.57,148.82V19.47c16.54,1.24,29.55,8.79,41.29,17.74,26.63,20.32,42.22,48.84,55.47,78.81,1.83,4.13,2,8-2.63,10.15C581.13,139.93,550.25,148,516.57,148.82Z"/><path class="cls-1" d="M614.33,424.57c-11.66,45.19-56.12,101.36-96.14,103.74-3-10.37-4-104.46-1-128.4C551.61,400.59,584.15,407.67,614.33,424.57Z"/><path class="cls-1" d="M568,14.72c43,10.61,81.11,29.4,113.67,58.76-8.2,14.24-21.42,25.49-46.11,39.1C621,74.62,599.21,41.5,568,14.72Z"/><path class="cls-1" d="M684,472.5c-33.25,28.54-67.78,50.07-110.26,57.3,28-26.55,47.29-58.37,62.14-94.81C653.87,446.72,670.13,456.76,684,472.5Z"/><path class="cls-1" d="M372.06,113.4c-17.39-7.89-29-19.76-41.82-30-7.35-5.85-2.51-10.35,2.36-14.34,22.53-18.46,47.1-33.55,74.54-43.49,9.18-3.32,17.83-8.86,32.31-9C407.55,44.38,387.3,76.62,372.06,113.4Z"/><path class="cls-1" d="M439.61,531.54c-29.83-2.86-97.54-38.19-113.3-61.32a212.86,212.86,0,0,1,45.8-34.1c9.89,17.3,17.38,35.13,27.91,51.29C410.39,503.34,425.3,515.13,439.61,531.54Z"/><path class="cls-1" d="M555.08,297c0,9,.24,18-.07,26.93-.41,12.14-6,18.79-18.21,19.17-21.41.68-42.9.77-64.3-.09-13.29-.54-19.34-8-19.56-21.58-.29-17.45-.08-34.9-.06-52.36,0-3.48-1-8.27,1.73-10,12.25-7.8,9.42-20.42,11.54-31.68,4.07-21.58,22.54-35.74,42.66-33.56,19.62,2.13,33.81,18.85,34.25,40.59.17,8.38-1.36,17,8.75,21.73,3.79,1.77,3.27,6.91,3.27,10.93ZM529.77,252.5c.91-15.41,2.8-29.89-10.48-40.32-7.53-5.91-21.93-5.69-29.45-.17-14.09,10.35-14.37,24.56-11.39,40.49Zm-26.36,18.89c-10,.39-16.24,9.68-11,19.06,4.1,7.29,6.51,14.09,5.94,22.24-.28,3.92,1.13,6.71,5.81,6.73,4.88,0,5.75-3,5.5-6.86-.5-7.66.56-14.36,6.72-20.17,3.79-3.57,3.15-9.32.68-14C514.27,273.09,509.4,271,503.41,271.39Z"/></svg>